<?xml version="1.0" encoding="UTF-8" standalone="no" ?>
<!DOCTYPE svg PUBLIC "-//W3C//DTD SVG 1.1//EN" "http://www.w3.org/Graphics/SVG/1.1/DTD/svg11.dtd">
<svg xmlns="http://www.w3.org/2000/svg" xmlns:xlink="http://www.w3.org/1999/xlink" version="1.1" width="1080" height="1080" viewBox="0 0 1080 1080" xml:space="preserve">
<desc>Created with Fabric.js 5.2.4</desc>
<defs>
</defs>
<g transform="matrix(1 0 0 1 540 540)" id="738358cf-6f05-4195-abda-c06eddffc8a0"  >
</g>
<g transform="matrix(1 0 0 1 540 540)" id="3ec60454-10cb-4165-95f8-58ddbe2ead30"  >
<rect style="stroke: none; stroke-width: 1; stroke-dasharray: none; stroke-linecap: butt; stroke-dashoffset: 0; stroke-linejoin: miter; stroke-miterlimit: 4; fill: rgb(255,255,255); fill-rule: nonzero; opacity: 1; visibility: hidden;" vector-effect="non-scaling-stroke"  x="-540" y="-540" rx="0" ry="0" width="1080" height="1080" />
</g>
<g transform="matrix(3.01 0 0 3.01 540 540)"  >
<path style="stroke: rgb(0,0,0); stroke-width: 0; stroke-dasharray: none; stroke-linecap: butt; stroke-dashoffset: 0; stroke-linejoin: miter; stroke-miterlimit: 4; fill: rgb(208,208,208); fill-rule: nonzero; opacity: 1;" vector-effect="non-scaling-stroke"  transform=" translate(-172.48, -172.48)" d="M 321.847 86.242 L 281.82099999999997 63.132000000000005 L 258.717 23.112000000000002 L 212.504 23.112000000000002 L 172.47799999999998 0.0020000000000024443 L 132.45199999999997 23.112000000000002 L 86.239 23.112000000000002 L 63.129000000000005 63.138000000000005 L 23.11 86.242 L 23.11 132.455 L 0 172.481 L 23.11 212.507 L 23.11 258.72 L 63.136 281.83000000000004 L 86.24600000000001 321.85600000000005 L 132.459 321.85600000000005 L 172.479 344.96000000000004 L 212.50500000000002 321.85 L 258.718 321.85 L 281.82800000000003 281.824 L 321.85400000000004 258.714 L 321.85400000000004 212.501 L 344.96400000000006 172.475 L 321.85400000000004 132.44899999999998 L 321.85400000000004 86.242 L 321.847 86.242 z M 156.911 243.075 C 153.695 246.291 149.458 247.85399999999998 145.24 247.795 C 141.02100000000002 247.855 136.785 246.291 133.56900000000002 243.075 L 83.12500000000001 192.63099999999997 C 76.80600000000001 186.31199999999998 76.80600000000001 176.06099999999998 83.12500000000001 169.74199999999996 L 96.47900000000001 156.38799999999998 C 102.79800000000002 150.069 113.049 150.069 119.36800000000001 156.38799999999998 L 145.24 182.26 L 225.584 101.91 C 231.903 95.591 242.154 95.591 248.473 101.91 L 261.827 115.264 C 268.146 121.583 268.146 131.834 261.827 138.153 L 156.911 243.075 z" stroke-linecap="round" />
</g>
</svg>