<?xml version="1.0" encoding="UTF-8" standalone="no" ?>
<!DOCTYPE svg PUBLIC "-//W3C//DTD SVG 1.1//EN" "http://www.w3.org/Graphics/SVG/1.1/DTD/svg11.dtd">
<svg xmlns="http://www.w3.org/2000/svg" xmlns:xlink="http://www.w3.org/1999/xlink" version="1.1" width="1080" height="1080" viewBox="0 0 1080 1080" xml:space="preserve">
<desc>Created with Fabric.js 5.2.4</desc>
<defs>
</defs>
<g transform="matrix(1 0 0 1 540 540)" id="d7e6be12-ff74-4c3f-985c-dca1714f004a"  >
</g>
<g transform="matrix(1 0 0 1 540 540)" id="eb26d7f9-837e-46f7-8c51-4b940acb0cb1"  >
<rect style="stroke: none; stroke-width: 1; stroke-dasharray: none; stroke-linecap: butt; stroke-dashoffset: 0; stroke-linejoin: miter; stroke-miterlimit: 4; fill: rgb(255,255,255); fill-rule: nonzero; opacity: 1; visibility: hidden;" vector-effect="non-scaling-stroke"  x="-540" y="-540" rx="0" ry="0" width="1080" height="1080" />
</g>
<g transform="matrix(73.72 0 0 73.72 540 540)"  >
<path style="stroke: rgb(0,0,0); stroke-width: 0; stroke-dasharray: none; stroke-linecap: butt; stroke-dashoffset: 0; stroke-linejoin: miter; stroke-miterlimit: 4; fill: rgb(101,103,107); fill-rule: nonzero; opacity: 1;" vector-effect="non-scaling-stroke"  transform=" translate(-8, -8)" d="M 4.843 10.944 L 4.649 13.279 C 4.641726092528844 13.36230600544749 4.686029590678274 13.441614785589925 4.760780091760277 13.479100287607448 C 4.83553059284228 13.51658578962497 4.925588103313832 13.504655686372114 4.988 13.449 L 7.198 11.485 L 7.787000000000001 11.498 L 8 11.5 C 9.695 11.5 11.087 11.06 12.02 10.323 C 12.91 9.621 13.5 8.563 13.5 7 C 13.5 5.436999999999999 12.91 4.38 12.02 3.677 C 11.087 2.94 9.695 2.5 8 2.5 C 6.305 2.5 4.913 2.94 3.9800000000000004 3.677 C 3.09 4.38 2.5 5.437 2.5 7 C 2.5 8.648 3.156 9.742 4.148 10.448 z M 5.984 14.569 L 7.754 12.997 Q 7.875 13 8 13 C 11.866 13 15 11 15 7 C 15 3 11.866 1 8 1 C 4.134 1 1 3 1 7 C 1 9.117 1.8780000000000001 10.674 3.277 11.67 L 3.154 13.154 C 3.0962612424383416 13.848272404924304 3.466965869316009 14.50776863310358 4.090085720621769 14.819328558756462 C 4.713205571927529 15.130888484409342 5.463225330597552 15.031754449003909 5.984 14.568999999999999" stroke-linecap="round" />
</g>
<g transform="matrix(NaN NaN NaN NaN 0 0)"  >
<g style=""   >
</g>
</g>
<g transform="matrix(NaN NaN NaN NaN 0 0)"  >
<g style=""   >
</g>
</g>
</svg>