<svg width="216" height="48" viewBox="0 0 216 48" fill="none" xmlns="http://www.w3.org/2000/svg">
<g filter="url(#filter0_d_13_4)">
<path d="M4.875 39V9.90909H25.8409V16.2727H12.7727V21.2727H24.7614V27.6364H12.7727V32.6364H25.7841V39H4.875ZM37.7124 26.7273V39H29.8714V9.90909H37.4283V21.3295H37.6555C38.148 19.9375 38.9671 18.8532 40.1129 18.0767C41.2588 17.2907 42.6366 16.8977 44.2464 16.8977C45.79 16.8977 47.13 17.2481 48.2663 17.9489C49.4122 18.6496 50.2976 19.6155 50.9226 20.8466C51.5571 22.0777 51.8696 23.4886 51.8601 25.0795V39H44.0192V26.7273C44.0286 25.6477 43.7588 24.8002 43.2095 24.1847C42.6697 23.5691 41.898 23.2614 40.8942 23.2614C40.2597 23.2614 39.701 23.4034 39.218 23.6875C38.7446 23.9621 38.3752 24.3598 38.1101 24.8807C37.8544 25.392 37.7218 26.0076 37.7124 26.7273ZM60.9723 39L52.3928 9.90909H61.1996L65.1768 27.8068H65.4041L70.12 9.90909H77.0518L81.7678 27.8636H81.995L85.9723 9.90909H94.7791L86.1996 39H78.6428L73.6996 22.75H73.4723L68.5291 39H60.9723ZM105.422 39.3977C103.054 39.3977 101.028 38.929 99.3423 37.9915C97.6567 37.0445 96.3641 35.7282 95.4645 34.0426C94.5649 32.3475 94.1151 30.3826 94.1151 28.1477C94.1151 25.9129 94.5649 23.9527 95.4645 22.267C96.3641 20.572 97.6567 19.2557 99.3423 18.3182C101.028 17.3712 103.054 16.8977 105.422 16.8977C107.789 16.8977 109.816 17.3712 111.501 18.3182C113.187 19.2557 114.48 20.572 115.379 22.267C116.279 23.9527 116.729 25.9129 116.729 28.1477C116.729 30.3826 116.279 32.3475 115.379 34.0426C114.48 35.7282 113.187 37.0445 111.501 37.9915C109.816 38.929 107.789 39.3977 105.422 39.3977ZM105.479 33.6023C106.142 33.6023 106.714 33.3797 107.197 32.9347C107.68 32.4896 108.054 31.8551 108.32 31.0312C108.585 30.2074 108.717 29.2273 108.717 28.0909C108.717 26.9451 108.585 25.965 108.32 25.1506C108.054 24.3267 107.68 23.6922 107.197 23.2472C106.714 22.8021 106.142 22.5795 105.479 22.5795C104.778 22.5795 104.177 22.8021 103.675 23.2472C103.173 23.6922 102.789 24.3267 102.524 25.1506C102.259 25.965 102.126 26.9451 102.126 28.0909C102.126 29.2273 102.259 30.2074 102.524 31.0312C102.789 31.8551 103.173 32.4896 103.675 32.9347C104.177 33.3797 104.778 33.6023 105.479 33.6023ZM119.911 39V17.1818H127.524V21.3295H127.751C128.149 19.7955 128.779 18.6733 129.641 17.9631C130.512 17.2528 131.53 16.8977 132.695 16.8977C133.036 16.8977 133.372 16.9261 133.703 16.983C134.044 17.0303 134.371 17.1013 134.683 17.196V23.8864C134.295 23.7538 133.817 23.6544 133.249 23.5881C132.68 23.5218 132.193 23.4886 131.786 23.4886C131.018 23.4886 130.327 23.6638 129.712 24.0142C129.106 24.3551 128.627 24.8381 128.277 25.4631C127.927 26.0786 127.751 26.803 127.751 27.6364V39H119.911ZM145.095 9.90909V39H137.254V9.90909H145.095ZM156.988 39.2841C155.435 39.2841 154.005 38.8769 152.698 38.0625C151.401 37.2481 150.359 36.0123 149.573 34.3551C148.797 32.6979 148.408 30.6098 148.408 28.0909C148.408 25.4583 148.816 23.3182 149.63 21.6705C150.454 20.0227 151.514 18.8153 152.812 18.0483C154.119 17.2812 155.492 16.8977 156.931 16.8977C158.011 16.8977 158.958 17.0871 159.772 17.4659C160.586 17.8352 161.268 18.3324 161.817 18.9574C162.367 19.5729 162.783 20.25 163.067 20.9886H163.181V9.90909H171.022V39H163.238V35.4205H163.067C162.764 36.1591 162.329 36.822 161.761 37.4091C161.202 37.9867 160.52 38.446 159.715 38.7869C158.92 39.1184 158.011 39.2841 156.988 39.2841ZM159.886 33.2614C160.605 33.2614 161.221 33.053 161.732 32.6364C162.253 32.2102 162.651 31.6136 162.925 30.8466C163.21 30.0701 163.352 29.1515 163.352 28.0909C163.352 27.0114 163.21 26.0881 162.925 25.321C162.651 24.5445 162.253 23.9527 161.732 23.5455C161.221 23.1288 160.605 22.9205 159.886 22.9205C159.166 22.9205 158.55 23.1288 158.039 23.5455C157.537 23.9527 157.149 24.5445 156.874 25.321C156.609 26.0881 156.477 27.0114 156.477 28.0909C156.477 29.1705 156.609 30.0985 156.874 30.875C157.149 31.642 157.537 32.2339 158.039 32.6506C158.55 33.0578 159.166 33.2614 159.886 33.2614Z" fill="url(#paint0_linear_13_4)"/>
</g>
<g filter="url(#filter1_d_13_4)">
<path d="M176.284 15L178.216 3.36364H182.875C183.731 3.36364 184.424 3.49053 184.955 3.74432C185.489 3.99811 185.862 4.35038 186.074 4.80114C186.286 5.24811 186.343 5.76326 186.244 6.34659C186.165 6.80114 186.004 7.19886 185.761 7.53977C185.523 7.88068 185.227 8.16098 184.875 8.38068C184.523 8.60038 184.14 8.75568 183.727 8.84659L183.705 8.96023C184.144 8.97917 184.54 9.10417 184.892 9.33523C185.244 9.5625 185.508 9.88447 185.682 10.3011C185.856 10.7178 185.896 11.2121 185.801 11.7841C185.699 12.4015 185.455 12.9527 185.068 13.4375C184.682 13.9186 184.167 14.2992 183.523 14.5795C182.883 14.8598 182.127 15 181.256 15H176.284ZM179.085 12.9886H181.091C181.773 12.9886 182.294 12.8561 182.653 12.5909C183.013 12.3258 183.229 11.9754 183.301 11.5398C183.35 11.2178 183.318 10.9337 183.205 10.6875C183.095 10.4413 182.907 10.2481 182.642 10.108C182.381 9.9678 182.049 9.89773 181.648 9.89773H179.591L179.085 12.9886ZM179.875 8.23295H181.699C182.032 8.23295 182.341 8.17424 182.625 8.05682C182.913 7.93561 183.15 7.76515 183.335 7.54545C183.525 7.32197 183.644 7.05871 183.693 6.75568C183.761 6.33144 183.667 5.99242 183.409 5.73864C183.155 5.48106 182.758 5.35227 182.216 5.35227H180.352L179.875 8.23295ZM190.771 15.1705C189.877 15.1705 189.137 14.9886 188.55 14.625C187.963 14.2576 187.55 13.7386 187.311 13.0682C187.076 12.3939 187.036 11.5966 187.192 10.6761C187.343 9.77841 187.648 8.99053 188.107 8.3125C188.569 7.63447 189.148 7.10606 189.845 6.72727C190.542 6.34848 191.319 6.15909 192.175 6.15909C192.75 6.15909 193.271 6.25189 193.737 6.4375C194.207 6.61932 194.597 6.89583 194.908 7.26705C195.218 7.63447 195.43 8.0947 195.544 8.64773C195.661 9.20076 195.66 9.84848 195.538 10.5909L195.43 11.2557H188.067L188.3 9.75568H193.391C193.447 9.4072 193.425 9.09848 193.322 8.82955C193.22 8.56061 193.05 8.35038 192.811 8.19886C192.572 8.04356 192.279 7.96591 191.93 7.96591C191.574 7.96591 191.241 8.05303 190.93 8.22727C190.62 8.40151 190.358 8.63068 190.146 8.91477C189.938 9.19508 189.804 9.5 189.743 9.82955L189.476 11.3182C189.4 11.7765 189.415 12.1572 189.521 12.4602C189.631 12.7633 189.821 12.9905 190.089 13.142C190.358 13.2898 190.699 13.3636 191.112 13.3636C191.381 13.3636 191.633 13.3258 191.868 13.25C192.107 13.1742 192.319 13.0625 192.504 12.9148C192.69 12.7633 192.841 12.5758 192.959 12.3523L195.169 12.5C194.964 13.0379 194.654 13.5076 194.237 13.9091C193.821 14.3068 193.319 14.6174 192.732 14.8409C192.148 15.0606 191.495 15.1705 190.771 15.1705ZM202.491 6.27273L202.19 8.09091H196.929L197.236 6.27273H202.491ZM198.77 4.18182H201.19L199.838 12.3182C199.8 12.5417 199.806 12.7159 199.855 12.8409C199.904 12.9621 199.986 13.0473 200.099 13.0966C200.217 13.1458 200.357 13.1705 200.52 13.1705C200.634 13.1705 200.749 13.161 200.866 13.142C200.984 13.1193 201.073 13.1023 201.134 13.0909L201.224 14.892C201.088 14.9337 200.904 14.9792 200.673 15.0284C200.446 15.0777 200.177 15.108 199.866 15.1193C199.276 15.142 198.776 15.0644 198.366 14.8864C197.957 14.7045 197.664 14.4261 197.486 14.0511C197.308 13.6761 197.27 13.2045 197.372 12.6364L198.77 4.18182ZM205.08 15.1648C204.527 15.1648 204.047 15.0682 203.642 14.875C203.241 14.678 202.945 14.3864 202.756 14C202.566 13.6136 202.519 13.1345 202.614 12.5625C202.697 12.0777 202.854 11.6723 203.085 11.3466C203.32 11.017 203.606 10.7519 203.943 10.5511C204.28 10.3504 204.653 10.197 205.062 10.0909C205.475 9.98485 205.902 9.91288 206.341 9.875C206.848 9.82197 207.261 9.77083 207.58 9.72159C207.902 9.67235 208.142 9.60227 208.301 9.51136C208.46 9.41667 208.557 9.27652 208.591 9.09091V9.05682C208.648 8.70076 208.581 8.42424 208.392 8.22727C208.206 8.02651 207.909 7.92614 207.5 7.92614C207.068 7.92614 206.701 8.02083 206.398 8.21023C206.098 8.39962 205.884 8.64015 205.756 8.93182L203.551 8.75C203.748 8.2197 204.045 7.76136 204.443 7.375C204.845 6.98485 205.328 6.68561 205.892 6.47727C206.456 6.26515 207.089 6.15909 207.79 6.15909C208.275 6.15909 208.727 6.21591 209.148 6.32955C209.572 6.44318 209.938 6.61932 210.244 6.85795C210.555 7.09659 210.778 7.40341 210.915 7.77841C211.055 8.14962 211.083 8.5947 211 9.11364L210.017 15H207.722L207.926 13.7898H207.858C207.672 14.0625 207.445 14.303 207.176 14.5114C206.907 14.7159 206.598 14.8769 206.25 14.9943C205.902 15.108 205.511 15.1648 205.08 15.1648ZM206.051 13.4943C206.403 13.4943 206.727 13.4242 207.023 13.2841C207.322 13.1402 207.568 12.947 207.761 12.7045C207.958 12.4621 208.083 12.1875 208.136 11.8807L208.284 10.9545C208.208 11.0038 208.098 11.0473 207.955 11.0852C207.814 11.1231 207.661 11.1591 207.494 11.1932C207.331 11.2235 207.167 11.2519 207 11.2784C206.833 11.3011 206.684 11.3239 206.551 11.3466C206.259 11.3883 205.998 11.4545 205.767 11.5455C205.536 11.6364 205.348 11.7595 205.205 11.9148C205.061 12.0663 204.972 12.2557 204.938 12.483C204.884 12.8125 204.962 13.0644 205.17 13.2386C205.383 13.4091 205.676 13.4943 206.051 13.4943Z" fill="white"/>
</g>
<defs>
<filter id="filter0_d_13_4" x="0.875" y="9.90909" width="174.147" height="37.4886" filterUnits="userSpaceOnUse" color-interpolation-filters="sRGB">
<feFlood flood-opacity="0" result="BackgroundImageFix"/>
<feColorMatrix in="SourceAlpha" type="matrix" values="0 0 0 0 0 0 0 0 0 0 0 0 0 0 0 0 0 0 127 0" result="hardAlpha"/>
<feOffset dy="4"/>
<feGaussianBlur stdDeviation="2"/>
<feComposite in2="hardAlpha" operator="out"/>
<feColorMatrix type="matrix" values="0 0 0 0 0 0 0 0 0 0 0 0 0 0 0 0 0 0 0.25 0"/>
<feBlend mode="normal" in2="BackgroundImageFix" result="effect1_dropShadow_13_4"/>
<feBlend mode="normal" in="SourceGraphic" in2="effect1_dropShadow_13_4" result="shape"/>
</filter>
<filter id="filter1_d_13_4" x="172.284" y="3.36363" width="42.8409" height="19.8068" filterUnits="userSpaceOnUse" color-interpolation-filters="sRGB">
<feFlood flood-opacity="0" result="BackgroundImageFix"/>
<feColorMatrix in="SourceAlpha" type="matrix" values="0 0 0 0 0 0 0 0 0 0 0 0 0 0 0 0 0 0 127 0" result="hardAlpha"/>
<feOffset dy="4"/>
<feGaussianBlur stdDeviation="2"/>
<feComposite in2="hardAlpha" operator="out"/>
<feColorMatrix type="matrix" values="0 0 0 0 0 0 0 0 0 0 0 0 0 0 0 0 0 0 0.25 0"/>
<feBlend mode="normal" in2="BackgroundImageFix" result="effect1_dropShadow_13_4"/>
<feBlend mode="normal" in="SourceGraphic" in2="effect1_dropShadow_13_4" result="shape"/>
</filter>
<linearGradient id="paint0_linear_13_4" x1="3" y1="36.9474" x2="173" y2="11.0526" gradientUnits="userSpaceOnUse">
<stop stop-color="#F200FF"/>
<stop offset="1" stop-color="#0077FF"/>
</linearGradient>
</defs>
</svg>
