<?xml version="1.0" encoding="UTF-8" standalone="no" ?>
<!DOCTYPE svg PUBLIC "-//W3C//DTD SVG 1.1//EN" "http://www.w3.org/Graphics/SVG/1.1/DTD/svg11.dtd">
<svg xmlns="http://www.w3.org/2000/svg" xmlns:xlink="http://www.w3.org/1999/xlink" version="1.1" width="1080" height="1080" viewBox="0 0 1080 1080" xml:space="preserve">
<desc>Created with Fabric.js 5.2.4</desc>
<defs>
</defs>
<rect x="0" y="0" width="100%" height="100%" fill="transparent"></rect>
<g transform="matrix(1 0 0 1 540 540)" id="d2c08982-0c5b-46db-a4ed-85cef521c962"  >
<rect style="stroke: none; stroke-width: 1; stroke-dasharray: none; stroke-linecap: butt; stroke-dashoffset: 0; stroke-linejoin: miter; stroke-miterlimit: 4; fill: rgb(255,255,255); fill-rule: nonzero; opacity: 1; visibility: hidden;" vector-effect="non-scaling-stroke"  x="-540" y="-540" rx="0" ry="0" width="1080" height="1080" />
</g>
<g transform="matrix(1 0 0 1 540 540)" id="23e1a016-e5be-4e98-be55-909b9b9042b4"  >
</g>
<g transform="matrix(1 0 0 1 540 540)" id="6ce8f84b-e34b-4003-bf3a-1d537a5c9260"  >
<path style="stroke: rgb(0,0,0); stroke-width: 0; stroke-dasharray: none; stroke-linecap: butt; stroke-dashoffset: 0; stroke-linejoin: miter; stroke-miterlimit: 4; fill: rgb(255,255,255); fill-rule: nonzero; opacity: 1;" vector-effect="non-scaling-stroke"  transform=" translate(-512, -522.67)" d="M 512 938.666667 C 559.146667 938.666667 597.333333 900.48 597.333333 853.3333329999999 L 426.6666670000001 853.3333329999999 C 426.6666670000001 900.4799999999999 464.8533340000001 938.666666 512.0000000000001 938.666667 z M 768 682.666667 L 768 469.333333 C 768 338.133333 698.24 228.693333 576 199.68 L 576 170.666667 C 576 135.253334 547.413333 106.66666699999999 512 106.66666699999999 C 476.58666700000003 106.66666699999999 448 135.253334 448 170.666667 L 448 199.67999999999998 C 325.76 228.69333299999997 256 338.133333 256 469.3333329999999 L 256 682.666667 L 170.66666700000002 768 L 170.66666700000002 810.666667 L 853.333333 810.666667 L 853.333333 768 L 768 682.666667 z" stroke-linecap="round" />
</g>
<g transform="matrix(1 0 0 1 540 540)" id="4feb52ea-d426-4472-b1ad-91620262f89d"  >
<path style="stroke: rgb(0,0,0); stroke-width: 0; stroke-dasharray: none; stroke-linecap: butt; stroke-dashoffset: 0; stroke-linejoin: miter; stroke-miterlimit: 4; fill: rgb(255,255,255); fill-rule: nonzero; opacity: 1;" vector-effect="non-scaling-stroke"  transform=" translate(-512, -522.67)" d="M 323.413333 174.08 L 262.4 113.066667 C 160.213333 190.933333 92.8 311.253333 86.4 448 L 171.73333300000002 448 C 178.34666600000003 334.933333 236.58666600000004 235.946667 323.413333 174.07999999999998 z M 852.266667 448 L 937.6 448 C 931.2 311.253333 863.7866670000001 190.933333 761.6 113.066667 L 700.8000000000001 173.866667 C 787.4133330000001 235.946667 845.6533330000001 334.933334 852.2666670000001 448 z M 768 469.333333 C 768 338.133333 698.24 228.693333 576 199.68 L 576 170.666667 C 576 135.253334 547.413333 106.66666699999999 512 106.66666699999999 C 476.58666700000003 106.66666699999999 448 135.253334 448 170.666667 L 448 199.67999999999998 C 325.76 228.69333299999997 256 338.133333 256 469.3333329999999 L 256 682.666667 L 170.66666700000002 768 L 170.66666700000002 810.666667 L 853.333333 810.666667 L 853.333333 768 L 768 682.666667 L 768 469.333333 z M 512 938.666667 C 517.973333 938.666667 523.733333 938.026667 529.28 936.9599999999999 C 556.7338416660984 931.178285274211 579.6553330389581 912.3953963859828 590.72 886.6133329999999 C 594.986667 876.3733329999999 597.333333 865.2799999999999 597.333333 853.3333329999999 L 426.6666670000001 853.3333329999999 C 426.6666670000001 900.4799999999999 464.8533340000001 938.666666 512.0000000000001 938.666667 z" stroke-linecap="round" />
</g>
</svg>