<?xml version="1.0" encoding="UTF-8" standalone="no" ?>
<!DOCTYPE svg PUBLIC "-//W3C//DTD SVG 1.1//EN" "http://www.w3.org/Graphics/SVG/1.1/DTD/svg11.dtd">
<svg xmlns="http://www.w3.org/2000/svg" xmlns:xlink="http://www.w3.org/1999/xlink" version="1.1" width="1080" height="1080" viewBox="0 0 1080 1080" xml:space="preserve">
<desc>Created with Fabric.js 5.2.4</desc>
<defs>
</defs>
<rect x="0" y="0" width="100%" height="100%" fill="transparent"></rect>
<g transform="matrix(1 0 0 1 540 540)" id="22d14edb-80b8-43b3-8fca-e387f84a4dbe"  >
<rect style="stroke: none; stroke-width: 1; stroke-dasharray: none; stroke-linecap: butt; stroke-dashoffset: 0; stroke-linejoin: miter; stroke-miterlimit: 4; fill: rgb(255,255,255); fill-rule: nonzero; opacity: 1; visibility: hidden;" vector-effect="non-scaling-stroke"  x="-540" y="-540" rx="0" ry="0" width="1080" height="1080" />
</g>
<g transform="matrix(1 0 0 1 540 540)" id="cb825bc0-f5a4-40f8-a350-4e1bf4d52704"  >
</g>
<g transform="matrix(0.1 0 0 0.1 564.45 543.28)"  >
<g style="" vector-effect="non-scaling-stroke"   >
		<g transform="matrix(1 0 0 1 -490 -536.98)"  >
<rect style="stroke: none; stroke-width: 1; stroke-dasharray: none; stroke-linecap: butt; stroke-dashoffset: 0; stroke-linejoin: miter; stroke-miterlimit: 4; fill: rgb(161,161,161); fill-rule: nonzero; opacity: 1;" vector-effect="non-scaling-stroke"  x="-50" y="-50" rx="0" ry="0" width="100" height="100" />
</g>
		<g transform="matrix(1 0 0 1 0 -46.98)"  >
<rect style="stroke: none; stroke-width: 1; stroke-dasharray: none; stroke-linecap: butt; stroke-dashoffset: 0; stroke-linejoin: miter; stroke-miterlimit: 4; fill: rgb(161,161,161); fill-rule: nonzero; opacity: 1; visibility: hidden;" vector-effect="non-scaling-stroke"  x="-540" y="-540" rx="0" ry="0" width="1080" height="1080" />
</g>
		<g transform="matrix(0.92 0 0 0.92 0 0)"  >
<path style="stroke: rgb(0,0,0); stroke-width: 0; stroke-dasharray: none; stroke-linecap: butt; stroke-dashoffset: 0; stroke-linejoin: miter; stroke-miterlimit: 4; fill: rgb(161,161,161); fill-rule: nonzero; opacity: 1;" vector-effect="non-scaling-stroke"  transform=" translate(-5305.7, -6245.84)" d="M 7835 11870 C 7280 11811 6771 11574 6311 11160 C 6151 11016 5940 10761 5819 10565 C 5758 10467 3304 6267 3198 6080 C 2732 5258 2557 4417 2721 3785 C 2788 3526 2943 3282 3130 3141 C 3497 2864 3965 2850 4475 3099 C 4724 3221 4958 3391 5199 3625 C 5448 3867 5662 4134 5853 4440 C 5994 4667 7175 6698 7193 6745 C 7218 6810 7226 6941 7210 7011 C 7161 7222 6973 7370 6755 7370 C 6576 7370 6435 7284 6334 7114 C 6312 7076 6033 6600 5715 6055 C 5397 5511 5113 5025 5082 4975 C 4799 4512 4455 4154 4109 3961 C 4016 3909 3893 3869 3810 3863 C 3739 3858 3733 3859 3703 3884 C 3662 3918 3635 3979 3614 4081 C 3589 4203 3599 4470 3634 4640 C 3699 4956 3819 5273 3988 5575 C 4119 5809 6569 9999 6628 10090 C 6924 10548 7398 10867 7878 10931 C 8012 10949 8223 10937 8345 10906 C 8470 10873 8624 10799 8728 10720 C 9231 10341 9352 9529 9011 8825 C 8950 8698 5272 2395 5189 2275 C 4725 1602 3794 1354 3045 1705 C 2931 1758 2278 2130 2145 2218 C 1939 2354 1706 2619 1591 2849 C 1353 3324 1351 3884 1585 4351 C 1619 4417 2398 5753 4393 9165 C 4734 9748 5029 10259 5049 10300 C 5080 10365 5085 10386 5088 10467 C 5093 10574 5082 10627 5036 10715 C 4959 10863 4796 10960 4625 10960 C 4496 10959 4395 10916 4300 10820 C 4243 10763 4197 10689 3909 10195 C 3729 9887 2967 8582 2215 7295 C 1463 6008 825 4915 797 4865 C 647 4600 539 4269 494 3940 C 470 3770 470 3450 494 3280 C 550 2868 692 2489 914 2156 C 1025 1991 1101 1898 1244 1755 C 1464 1535 1570 1461 2059 1180 C 2679 824 2778 778 3094 695 C 3352 627 3452 616 3770 616 C 4078 616 4173 626 4420 686 C 4776 774 5174 971 5456 1200 C 5648 1357 5850 1578 5987 1785 C 6047 1875 9716 8149 9803 8310 C 9949 8581 10064 8932 10117 9270 C 10139 9415 10142 9846 10122 9985 C 10057 10417 9914 10773 9682 11080 C 9610 11175 9446 11345 9355 11420 C 9080 11645 8746 11794 8380 11855 C 8268 11874 7950 11882 7835 11870 z" stroke-linecap="round" />
</g>
</g>
</g>
</svg>