<?xml version="1.0" encoding="UTF-8" standalone="no" ?>
<!DOCTYPE svg PUBLIC "-//W3C//DTD SVG 1.1//EN" "http://www.w3.org/Graphics/SVG/1.1/DTD/svg11.dtd">
<svg xmlns="http://www.w3.org/2000/svg" xmlns:xlink="http://www.w3.org/1999/xlink" version="1.1" width="1080" height="1080" viewBox="0 0 1080 1080" xml:space="preserve">
<desc>Created with Fabric.js 5.2.4</desc>
<defs>
</defs>
<rect x="0" y="0" width="100%" height="100%" fill="transparent"></rect>
<g transform="matrix(1 0 0 1 540 540)" id="3ec60454-10cb-4165-95f8-58ddbe2ead30"  >
<rect style="stroke: none; stroke-width: 1; stroke-dasharray: none; stroke-linecap: butt; stroke-dashoffset: 0; stroke-linejoin: miter; stroke-miterlimit: 4; fill: rgb(255,255,255); fill-rule: nonzero; opacity: 1; visibility: hidden;" vector-effect="non-scaling-stroke"  x="-540" y="-540" rx="0" ry="0" width="1080" height="1080" />
</g>
<g transform="matrix(1 0 0 1 540 540)" id="738358cf-6f05-4195-abda-c06eddffc8a0"  >
</g>
<g transform="matrix(55.12 0 0 55.12 540 540)" id="e054a87c-f180-4c0b-bf78-460dfb730132"  >
<path style="stroke: rgb(0,0,0); stroke-width: 0; stroke-dasharray: none; stroke-linecap: butt; stroke-dashoffset: 0; stroke-linejoin: miter; stroke-miterlimit: 4; fill: rgb(200,200,200); fill-rule: nonzero; opacity: 1;" vector-effect="non-scaling-stroke"  transform=" translate(-9.02, -8.03)" d="M 9.016 0.06 C 4.616 0.06 1.047 3.629 1.047 8.029 C 1.047 12.429 4.615 15.998 9.016 15.998 C 13.418 15.998 16.985 12.429 16.985 8.029 C 16.985 3.629 13.418 0.06 9.016 0.06 L 9.016 0.06 Z M 3.049 8.028 C 3.049 4.739 5.726 2.062 9.016 2.062 C 10.37 2.062 11.616 2.52 12.618 3.283 L 4.271 11.631 C 3.508 10.629 3.049 9.381 3.049 8.028 L 3.049 8.028 Z M 9.016 13.994 C 7.731 13.994 6.544 13.583 5.569 12.889 L 13.878 4.58 C 14.571 5.555 14.982 6.743 14.982 8.028 C 14.981 11.317 12.306 13.994 9.016 13.994 L 9.016 13.994 Z" stroke-linecap="round" />
</g>
</svg>