<?xml version="1.0" encoding="UTF-8" standalone="no" ?>
<!DOCTYPE svg PUBLIC "-//W3C//DTD SVG 1.1//EN" "http://www.w3.org/Graphics/SVG/1.1/DTD/svg11.dtd">
<svg xmlns="http://www.w3.org/2000/svg" xmlns:xlink="http://www.w3.org/1999/xlink" version="1.1" width="1080" height="1080" viewBox="0 0 1080 1080" xml:space="preserve">
<desc>Created with Fabric.js 5.2.4</desc>
<defs>
</defs>
<rect x="0" y="0" width="100%" height="100%" fill="transparent"></rect>
<g transform="matrix(1 0 0 1 540 540)" id="1c0570d0-bcd1-43a4-b419-2991ae854c31"  >
<rect style="stroke: none; stroke-width: 1; stroke-dasharray: none; stroke-linecap: butt; stroke-dashoffset: 0; stroke-linejoin: miter; stroke-miterlimit: 4; fill: rgb(255,255,255); fill-rule: nonzero; opacity: 1; visibility: hidden;" vector-effect="non-scaling-stroke"  x="-540" y="-540" rx="0" ry="0" width="1080" height="1080" />
</g>
<g transform="matrix(1 0 0 1 540 540)" id="0d855500-beb7-49f4-a742-c2ac08d4939d"  >
</g>
<g transform="matrix(1 0 0 1 540 540)" id="8bcf1e22-7f55-4af7-bf46-c716523e37c7"  >
<path style="stroke: rgb(0,0,0); stroke-width: 0; stroke-dasharray: none; stroke-linecap: butt; stroke-dashoffset: 0; stroke-linejoin: miter; stroke-miterlimit: 4; fill: rgb(101,103,107); fill-rule: nonzero; opacity: 1;" vector-effect="non-scaling-stroke"  transform=" translate(-512, -512)" d="M 512 384 C 441.173333 384 384 441.173333 384 512 C 384 582.826667 441.173333 640 512 640 C 582.826667 640 640 582.826667 640 512 C 640 441.173333 582.826667 384 512 384 M 512 725.333333 C 394.24 725.333333 298.666667 629.76 298.666667 512 C 298.666667 394.24 394.24 298.666667 512 298.666667 C 629.76 298.666667 725.333333 394.24 725.333333 512 C 725.333333 629.76 629.76 725.333333 512 725.333333 M 512 192 C 298.666667 192 116.48 324.693333 42.666667 512 C 116.48 699.306667 298.666667 832 512 832 C 725.333333 832 907.52 699.306667 981.333333 512 C 907.52 324.693333 725.333333 192 512 192 Z" stroke-linecap="round" />
</g>
<g transform="matrix(NaN NaN NaN NaN 0 0)"  >
<g style=""   >
</g>
</g>
<g transform="matrix(NaN NaN NaN NaN 0 0)"  >
<g style=""   >
</g>
</g>
<g transform="matrix(NaN NaN NaN NaN 0 0)"  >
<g style=""   >
</g>
</g>
</svg>